<svg width="87" height="107" viewBox="0 0 87 107" fill="none" xmlns="http://www.w3.org/2000/svg">
<path d="M1.2 85.225V82.5H13.4V85.225H8.775V100H5.8V85.225H1.2ZM11.9574 94.25C11.9574 93.0667 12.2241 92.025 12.7574 91.125C13.3074 90.225 14.0491 89.525 14.9824 89.025C15.9158 88.5083 16.9741 88.25 18.1574 88.25C19.3408 88.25 20.3908 88.5083 21.3074 89.025C22.2408 89.525 22.9824 90.225 23.5324 91.125C24.0824 92.025 24.3574 93.0667 24.3574 94.25C24.3574 95.4167 24.0824 96.4583 23.5324 97.375C22.9824 98.275 22.2408 98.9833 21.3074 99.5C20.3908 100 19.3408 100.25 18.1574 100.25C16.9741 100.25 15.9158 100 14.9824 99.5C14.0491 98.9833 13.3074 98.275 12.7574 97.375C12.2241 96.4583 11.9574 95.4167 11.9574 94.25ZM14.7324 94.25C14.7324 94.9667 14.8824 95.6 15.1824 96.15C15.4824 96.6833 15.8908 97.1083 16.4074 97.425C16.9241 97.725 17.5074 97.875 18.1574 97.875C18.7908 97.875 19.3658 97.725 19.8824 97.425C20.4158 97.1083 20.8324 96.6833 21.1324 96.15C21.4324 95.6 21.5824 94.9667 21.5824 94.25C21.5824 93.5333 21.4324 92.9 21.1324 92.35C20.8324 91.8 20.4158 91.375 19.8824 91.075C19.3658 90.775 18.7908 90.625 18.1574 90.625C17.5074 90.625 16.9241 90.775 16.4074 91.075C15.8908 91.375 15.4824 91.8 15.1824 92.35C14.8824 92.9 14.7324 93.5333 14.7324 94.25ZM29.5943 88.5V100H26.9193V88.5H29.5943ZM33.0193 91.375C32.7693 91.175 32.536 91.025 32.3193 90.925C32.1027 90.825 31.8277 90.775 31.4943 90.775C31.0443 90.775 30.6777 90.8917 30.3943 91.125C30.111 91.3583 29.9027 91.6833 29.7693 92.1C29.6527 92.5 29.5943 92.975 29.5943 93.525L28.6943 93C28.6943 92.0833 28.861 91.275 29.1943 90.575C29.5443 89.8583 29.986 89.2917 30.5193 88.875C31.0693 88.4583 31.636 88.25 32.2193 88.25C32.636 88.25 33.0277 88.3167 33.3943 88.45C33.761 88.5667 34.0693 88.7833 34.3193 89.1L33.0193 91.375ZM34.5723 88.5H41.0973V90.875H34.5723V88.5ZM36.4973 84.5H39.1723V100H36.4973V84.5ZM42.8594 83.925C42.8594 83.4583 43.026 83.0667 43.3594 82.75C43.7094 82.4333 44.1094 82.275 44.5594 82.275C45.0427 82.275 45.4427 82.4333 45.7594 82.75C46.0927 83.0667 46.2594 83.4583 46.2594 83.925C46.2594 84.375 46.0927 84.7667 45.7594 85.1C45.4427 85.4167 45.0427 85.575 44.5594 85.575C44.1094 85.575 43.7094 85.4167 43.3594 85.1C43.026 84.7667 42.8594 84.375 42.8594 83.925ZM43.2344 88.5H45.8844V100H43.2344V88.5ZM49.5 80.5H52.15V100H49.5V80.5ZM56.375 88.5H59.675L54.725 93.25L60.175 100H56.9L51.4 93.25L56.375 88.5ZM60.7367 94.25C60.7367 93.0667 61.0034 92.025 61.5367 91.125C62.0867 90.225 62.8284 89.525 63.7617 89.025C64.6951 88.5083 65.7534 88.25 66.9367 88.25C68.1201 88.25 69.1701 88.5083 70.0867 89.025C71.0201 89.525 71.7617 90.225 72.3117 91.125C72.8617 92.025 73.1367 93.0667 73.1367 94.25C73.1367 95.4167 72.8617 96.4583 72.3117 97.375C71.7617 98.275 71.0201 98.9833 70.0867 99.5C69.1701 100 68.1201 100.25 66.9367 100.25C65.7534 100.25 64.6951 100 63.7617 99.5C62.8284 98.9833 62.0867 98.275 61.5367 97.375C61.0034 96.4583 60.7367 95.4167 60.7367 94.25ZM63.5117 94.25C63.5117 94.9667 63.6617 95.6 63.9617 96.15C64.2617 96.6833 64.6701 97.1083 65.1867 97.425C65.7034 97.725 66.2867 97.875 66.9367 97.875C67.5701 97.875 68.1451 97.725 68.6617 97.425C69.1951 97.1083 69.6117 96.6833 69.9117 96.15C70.2117 95.6 70.3617 94.9667 70.3617 94.25C70.3617 93.5333 70.2117 92.9 69.9117 92.35C69.6117 91.8 69.1951 91.375 68.6617 91.075C68.1451 90.775 67.5701 90.625 66.9367 90.625C66.2867 90.625 65.7034 90.775 65.1867 91.075C64.6701 91.375 64.2617 91.8 63.9617 92.35C63.6617 92.9 63.5117 93.5333 63.5117 94.25ZM73.5824 88.5H76.5324L79.5324 95.925L82.5324 88.5H85.5074L79.5324 101.05L73.5824 88.5Z" fill="black"/>
<path d="M16.0651 59.7092C16.1834 59.7056 16.3017 59.7038 16.42 59.7038H68.2445C73.5116 59.7038 77.8141 63.82 78.0853 68.9983C83.4943 61.7954 86.6957 52.8561 86.6957 43.1701C86.6957 19.3285 67.2872 0 43.3469 0C19.4067 0 0 19.3267 0 43.1701C0 52.9576 3.27236 61.9821 8.78514 69.2248C7.74774 64.5703 11.1366 59.8832 16.0651 59.7092ZM41.4287 11.9643C41.5197 11.9643 41.6088 11.9661 41.698 11.9679C42.153 8.75257 43.3524 3.69569 46.4701 2.00463C46.9287 1.75632 47.5056 1.9285 47.775 2.37438C48.0662 2.85831 47.8897 3.48544 47.391 3.75369C45.8786 4.5675 43.0484 6.76606 42.3805 12.0096C44.5226 12.2235 46.1315 13.2204 46.1315 15.4824C46.1315 18.0688 44.0276 20.1641 41.4305 20.1641C38.8333 20.1641 36.7294 18.0688 36.7294 15.4824C36.7276 12.8959 38.8315 11.9643 41.4287 11.9643ZM31.961 27.5319H51.6589C55.4481 27.5319 58.735 29.6616 60.3839 32.7845C59.9508 32.7845 59.5176 32.7845 59.0845 32.7863C58.4238 32.7863 57.6812 32.8208 57.2335 33.3065C56.7894 33.7868 56.7531 34.6061 56.1852 34.9305C55.601 35.264 54.873 34.8435 54.398 34.3705C53.9211 33.8956 53.4425 33.312 52.7709 33.2594C52.1321 33.2105 51.5497 33.6998 51.2858 34.2816C50.8271 35.2948 51.3822 37.1853 49.6551 37.091C48.6577 37.0366 47.6931 35.989 47.5311 35.0538C47.3746 34.1439 47.9879 32.915 46.9123 32.3604C46.6648 32.2335 46.3754 32.2208 46.0988 32.2118C44.5936 32.1628 43.0757 32.1139 41.5961 32.3948C40.4986 32.6033 39.443 32.9893 38.3528 33.2286C34.6928 34.0351 30.6834 33.0781 27.7859 30.7092C27.2581 30.2778 26.7722 29.8066 26.3136 29.3063C27.9133 28.1898 29.8589 27.5319 31.961 27.5319ZM23.6982 39.547C23.7401 39.547 23.7801 39.547 23.822 39.547H59.7979C59.898 39.547 59.9981 39.5488 60.0982 39.5506C66.43 39.7391 69.0016 47.783 64.0403 51.7034C63.3469 52.2508 62.7063 52.7691 62.2076 53.1915C61.3904 53.8838 60.5386 54.5726 59.5322 54.9496C58.6622 55.2758 57.7177 55.352 56.7876 55.323C55.1114 55.2704 53.4443 54.8843 51.9191 54.192C50.4904 53.5449 49.1855 52.635 47.7204 52.0713C46.2553 51.5076 44.5172 51.3318 43.1758 52.1438C41.4323 53.1987 40.7789 55.6383 38.8861 56.3978C37.2609 57.0485 35.4299 56.164 34.0522 55.0873C32.4779 53.8566 31.1238 52.3432 29.4221 51.2956C27.7204 50.2498 25.4836 49.7368 23.731 50.6993C22.3605 51.4515 21.5324 53.0809 21.7344 54.627C20.9118 54.3025 20.1401 53.873 19.4303 53.36C13.4589 49.0372 16.3181 39.6376 23.6982 39.547Z" fill="#D11D65"/>
</svg>
